<?xml version="1.0" encoding="UTF-8" standalone="no"?>
<svg
   xmlns:dc="http://purl.org/dc/elements/1.1/"
   xmlns:cc="http://creativecommons.org/ns#"
   xmlns:rdf="http://www.w3.org/1999/02/22-rdf-syntax-ns#"
   xmlns:svg="http://www.w3.org/2000/svg"
   xmlns="http://www.w3.org/2000/svg"
   xmlns:xlink="http://www.w3.org/1999/xlink"
   width="185.84595"
   height="26.681"
   fill="none"
   version="1.1"
   id="svg22">
  <metadata
     id="metadata28">
    <rdf:RDF>
      <cc:Work
         rdf:about="">
        <dc:format>image/svg+xml</dc:format>
        <dc:type
           rdf:resource="http://purl.org/dc/dcmitype/StillImage" />
        <dc:title></dc:title>
      </cc:Work>
    </rdf:RDF>
  </metadata>
  <defs
     id="defs26">
    <clipPath
       clipPathUnits="userSpaceOnUse"
       id="clipPath35">
      <use
         x="0"
         y="0"
         xlink:href="#g31"
         id="use37"
         width="100%"
         height="100%" />
    </clipPath>
  </defs>
  <g
     id="g31">
    <path
       id="path20"
       style="fill:#000000"
       d="m 9.4199219,0 c -5.829,0 -8.89257815,2.9981094 -8.89257815,7.4121094 0,3.5249996 1.67973435,5.6002346 4.67773435,7.7402346 L 0,22.894531 H 4.3144531 L 10.113281,14.232422 8.1035156,12.880859 c -2.436,-1.648 -3.6230468,-2.9322184 -3.6230468,-5.6992184 0,-2.437 1.7116562,-4.0859375 4.9726562,-4.0859375 h 1.779297 V 22.894531 H 15.21875 V 0 Z M 102,0 v 22.912109 h 4.06445 v -9.632812 h 1.66407 l 7.26367,9.632812 h 4.80078 L 111.08789,11.263672 119.47266,0 h -4.32032 l -7.29687,9.8242188 h -1.79102 V 0 Z M 57.285156,5.9960938 c -4.777,0 -7.050781,3.6570625 -7.050781,8.6640622 0,5.764 2.832844,8.564453 7.839844,8.564453 2.504,0 4.347953,-0.659218 5.501953,-1.449218 v -0.002 -3.19336 c -1.22,0.823 -3.261875,1.548828 -5.171875,1.548828 -2.866,0 -3.952188,-1.35114 -4.117188,-4.11914 h 9.453125 V 13.9355 c 0,-5.7650001 -2.535078,-7.9394532 -6.455078,-7.9394532 z m 30.634766,0 c -5.007,0 -7.609375,3.5908593 -7.609375,8.6308592 0,5.534 2.537391,8.597656 7.775391,8.597656 1.811999,0 3.094781,-0.331437 4.050781,-1.023437 v -3.19336 c -0.989,0.692001 -2.175266,1.119141 -3.822266,1.119141 -2.8,0 -3.953125,-2.173609 -3.953125,-5.599609 0,-3.59 1.417328,-5.4355471 3.986328,-5.4355471 1.516,0 2.999063,0.5265312 3.789063,1.0195311 V 6.7871094 c -0.823,-0.461 -2.272797,-0.7910156 -4.216797,-0.7910156 z M 121.44727,6.3046875 V 22.912109 h 3.87304 V 15.96875 h 6.94336 v 6.943359 h 3.9043 V 6.3046875 h -3.9043 v 6.5273435 h -6.94336 V 6.3046875 Z m 17.82617,0 V 22.912109 h 3.83984 l 7.9043,-11.457031 v 11.457031 h 3.83984 V 6.3046875 h -3.80664 l -7.9375,11.4882815 V 6.3046875 Z m 18.72265,0 V 22.912109 h 3.8711 V 9.4394531 h 6.8164 V 6.3046875 Z m 12.26563,0 V 22.912109 h 3.83984 l 7.9043,-11.457031 v 11.457031 h 3.83984 V 6.3046875 h -3.80859 L 174.10156,17.792969 V 6.3046875 Z M 18.511719,6.3242188 V 22.894531 h 3.919922 v -6.917969 h 5.238281 v 6.917969 h 3.919922 V 6.3242188 H 27.669922 V 12.880859 H 22.431641 V 6.3242188 Z m 17.591797,0 v 1.4160156 c 0,4.0519996 -0.264438,9.2896406 -1.648438,12.0566406 h -1.216797 v 6.884766 h 3.623047 v -3.789063 h 8.794922 v 3.789063 h 3.623047 V 19.798828 H 47.533203 V 6.3242188 Z m 30.271484,0 V 22.894531 h 3.919922 v -8.136719 l 5.798828,8.136719 h 4.447266 L 74.248047,13.96875 79.783203,6.3261719 H 75.830078 L 70.294922,13.96875 V 6.3242188 Z m -9.154297,2.7675781 c 1.943,0 2.535156,1.6134531 2.535156,3.6894531 v 0.330078 h -5.46875 c 0.099,-2.636 1.055594,-4.0195311 2.933594,-4.0195311 z M 39.464844,9.421875 h 4.148437 v 10.376953 h -5.533203 c 1.087,-2.504 1.384766,-7.018766 1.384766,-9.8847655 z" />
  </g>
  <g
     aria-label="Книги"
     id="text41"
     style="font-style:normal;font-variant:normal;font-weight:normal;font-stretch:normal;font-size:32px;line-height:1.25;font-family:'Yandex Sans Text';-inkscape-font-specification:'Yandex Sans Text';letter-spacing:-1.15px;word-spacing:0px;fill:#000000;fill-opacity:1;stroke:none" />
</svg>
