<?xml version="1.0" encoding="UTF-8" standalone="no"?>
<svg
   xmlns:dc="http://purl.org/dc/elements/1.1/"
   xmlns:cc="http://creativecommons.org/ns#"
   xmlns:rdf="http://www.w3.org/1999/02/22-rdf-syntax-ns#"
   xmlns:svg="http://www.w3.org/2000/svg"
   xmlns="http://www.w3.org/2000/svg"
   xmlns:xlink="http://www.w3.org/1999/xlink"
   width="185.84595"
   height="26.681"
   fill="none"
   version="1.1"
   id="svg22">
  <metadata
     id="metadata28">
    <rdf:RDF>
      <cc:Work
         rdf:about="">
        <dc:format>image/svg+xml</dc:format>
        <dc:type
           rdf:resource="http://purl.org/dc/dcmitype/StillImage" />
        <dc:title></dc:title>
      </cc:Work>
    </rdf:RDF>
  </metadata>
  <defs
     id="defs26">
    <clipPath
       clipPathUnits="userSpaceOnUse"
       id="clipPath35">
      <use
         x="0"
         y="0"
         xlink:href="#g31"
         id="use37"
         width="100%"
         height="100%" />
    </clipPath>
  </defs>
  <g
     id="g33"
     clip-path="url(#clipPath35)">
    <g
       id="g31">
      <path
         id="path20"
         style="fill:#ffffff"
         d="M 9.4199219 0 C 3.5909219 0 0.52734375 2.9981094 0.52734375 7.4121094 C 0.52734375 10.937109 2.2070781 13.012344 5.2050781 15.152344 L 0 22.894531 L 4.3144531 22.894531 L 10.113281 14.232422 L 8.1035156 12.880859 C 5.6675156 11.232859 4.4804688 9.9486406 4.4804688 7.1816406 C 4.4804688 4.7446406 6.192125 3.0957031 9.453125 3.0957031 L 11.232422 3.0957031 L 11.232422 22.894531 L 15.21875 22.894531 L 15.21875 0 L 9.4199219 0 z M 102 0 L 102 22.912109 L 106.06445 22.912109 L 106.06445 13.279297 L 107.72852 13.279297 L 114.99219 22.912109 L 119.79297 22.912109 L 111.08789 11.263672 L 119.47266 0 L 115.15234 0 L 107.85547 9.8242188 L 106.06445 9.8242188 L 106.06445 0 L 102 0 z M 57.285156 5.9960938 C 52.508156 5.9960938 50.234375 9.6531563 50.234375 14.660156 C 50.234375 20.424156 53.067219 23.224609 58.074219 23.224609 C 60.578219 23.224609 62.422172 22.565391 63.576172 21.775391 L 63.576172 21.773438 L 63.576172 18.580078 C 62.356172 19.403078 60.314297 20.128906 58.404297 20.128906 C 55.538297 20.128906 54.452109 18.777766 54.287109 16.009766 L 63.740234 16.009766 L 63.740234 13.935547 C 63.740234 8.1705469 61.205156 5.9960938 57.285156 5.9960938 z M 87.919922 5.9960938 C 82.912922 5.9960938 80.310547 9.5869531 80.310547 14.626953 C 80.310547 20.160953 82.847938 23.224609 88.085938 23.224609 C 89.897937 23.224609 91.180719 22.893172 92.136719 22.201172 L 92.136719 19.007812 C 91.147719 19.699813 89.961453 20.126953 88.314453 20.126953 C 85.514453 20.126953 84.361328 17.953344 84.361328 14.527344 C 84.361328 10.937344 85.778656 9.0917969 88.347656 9.0917969 C 89.863656 9.0917969 91.346719 9.6183281 92.136719 10.111328 L 92.136719 6.7871094 C 91.313719 6.3261094 89.863922 5.9960938 87.919922 5.9960938 z M 121.44727 6.3046875 L 121.44727 22.912109 L 125.32031 22.912109 L 125.32031 15.96875 L 132.26367 15.96875 L 132.26367 22.912109 L 136.16797 22.912109 L 136.16797 6.3046875 L 132.26367 6.3046875 L 132.26367 12.832031 L 125.32031 12.832031 L 125.32031 6.3046875 L 121.44727 6.3046875 z M 139.27344 6.3046875 L 139.27344 22.912109 L 143.11328 22.912109 L 151.01758 11.455078 L 151.01758 22.912109 L 154.85742 22.912109 L 154.85742 6.3046875 L 151.05078 6.3046875 L 143.11328 17.792969 L 143.11328 6.3046875 L 139.27344 6.3046875 z M 157.99609 6.3046875 L 157.99609 22.912109 L 161.86719 22.912109 L 161.86719 9.4394531 L 168.68359 9.4394531 L 168.68359 6.3046875 L 157.99609 6.3046875 z M 170.26172 6.3046875 L 170.26172 22.912109 L 174.10156 22.912109 L 182.00586 11.455078 L 182.00586 22.912109 L 185.8457 22.912109 L 185.8457 6.3046875 L 182.03711 6.3046875 L 174.10156 17.792969 L 174.10156 6.3046875 L 170.26172 6.3046875 z M 18.511719 6.3242188 L 18.511719 22.894531 L 22.431641 22.894531 L 22.431641 15.976562 L 27.669922 15.976562 L 27.669922 22.894531 L 31.589844 22.894531 L 31.589844 6.3242188 L 27.669922 6.3242188 L 27.669922 12.880859 L 22.431641 12.880859 L 22.431641 6.3242188 L 18.511719 6.3242188 z M 36.103516 6.3242188 L 36.103516 7.7402344 C 36.103516 11.792234 35.839078 17.029875 34.455078 19.796875 L 33.238281 19.796875 L 33.238281 26.681641 L 36.861328 26.681641 L 36.861328 22.892578 L 45.65625 22.892578 L 45.65625 26.681641 L 49.279297 26.681641 L 49.279297 19.798828 L 47.533203 19.798828 L 47.533203 6.3242188 L 36.103516 6.3242188 z M 66.375 6.3242188 L 66.375 22.894531 L 70.294922 22.894531 L 70.294922 14.757812 L 76.09375 22.894531 L 80.541016 22.894531 L 74.248047 13.96875 L 79.783203 6.3261719 L 75.830078 6.3261719 L 70.294922 13.96875 L 70.294922 6.3242188 L 66.375 6.3242188 z M 57.220703 9.0917969 C 59.163703 9.0917969 59.755859 10.70525 59.755859 12.78125 L 59.755859 13.111328 L 54.287109 13.111328 C 54.386109 10.475328 55.342703 9.0917969 57.220703 9.0917969 z M 39.464844 9.421875 L 43.613281 9.421875 L 43.613281 19.798828 L 38.080078 19.798828 C 39.167078 17.294828 39.464844 12.780062 39.464844 9.9140625 L 39.464844 9.421875 z " />
    </g>
  </g>
  <g
     aria-label="Книги"
     id="text41"
     style="font-style:normal;font-variant:normal;font-weight:normal;font-stretch:normal;font-size:32px;line-height:1.25;font-family:'Yandex Sans Text';-inkscape-font-specification:'Yandex Sans Text';letter-spacing:-1.15px;word-spacing:0px;fill:#000000;fill-opacity:1;stroke:none" />
</svg>
