<?xml version="1.0" encoding="UTF-8" standalone="no"?>
<svg
   xmlns:dc="http://purl.org/dc/elements/1.1/"
   xmlns:cc="http://creativecommons.org/ns#"
   xmlns:rdf="http://www.w3.org/1999/02/22-rdf-syntax-ns#"
   xmlns:svg="http://www.w3.org/2000/svg"
   xmlns="http://www.w3.org/2000/svg"
   width="189.70851"
   height="23.716022"
   fill="none"
   version="1.1"
   id="svg68">
  <metadata
     id="metadata74">
    <rdf:RDF>
      <cc:Work
         rdf:about="">
        <dc:format>image/svg+xml</dc:format>
        <dc:type
           rdf:resource="http://purl.org/dc/dcmitype/StillImage" />
        <dc:title></dc:title>
      </cc:Work>
    </rdf:RDF>
  </metadata>
  <defs
     id="defs72" />
  <path
     id="path66"
     style="fill:#ffffff"
     d="M 106.90039 0 L 106.90039 23.388672 L 114.15234 23.388672 C 115.52434 23.388672 116.79861 23.268853 117.97461 23.029297 C 119.15061 22.767964 120.16239 22.376183 121.01172 21.853516 C 121.88283 21.30907 122.558 20.613006 123.03711 19.763672 C 123.51622 18.89256 123.75586 17.84651 123.75586 16.626953 C 123.75586 14.884729 123.23284 13.600993 122.1875 12.773438 C 121.16395 11.94588 119.64057 11.422856 117.61523 11.205078 C 118.35567 11.052633 119.03084 10.833893 119.64062 10.550781 C 120.27219 10.26767 120.79521 9.9082123 121.20898 9.4726562 C 121.64454 9.0153225 121.98115 8.4828253 122.2207 7.8730469 C 122.46026 7.2414907 122.58008 6.5111501 122.58008 5.6835938 C 122.58008 3.6147028 121.84027 2.1559748 120.35938 1.3066406 C 118.87847 0.43552867 116.72174 9.9240639e-17 113.89062 0 L 106.90039 0 z M 161.69727 0 L 161.69727 23.388672 L 165.65039 23.388672 L 165.65039 16.5625 L 167.1543 16.5625 L 172.31445 23.388672 L 176.95312 23.388672 L 170.32227 14.601562 L 176.62695 6.4355469 L 172.51172 6.4355469 L 167.21875 13.392578 L 165.65039 13.392578 L 165.65039 0 L 161.69727 0 z M 0 0.03515625 L 6.2207031 13.496094 C 7.4987031 16.248094 7.8691406 17.826625 7.8691406 21.015625 L 7.8691406 23.365234 L 11.804688 23.365234 L 11.804688 23.363281 L 11.804688 20.511719 C 11.804688 16.651719 11.130984 14.905828 9.5839844 11.548828 L 4.3046875 0.03515625 L 0 0.03515625 z M 15.302734 0.03515625 L 10.392578 11.314453 L 14.460938 11.314453 L 19.4375 0.03515625 L 15.302734 0.03515625 z M 61.373047 0.03515625 L 61.373047 8.4609375 C 60.364047 6.9509375 58.884719 6.1445312 57.136719 6.1445312 C 53.268719 6.1445312 50.578125 9.4000632 50.578125 15.039062 C 50.578125 20.611062 53.20175 23.699219 56.96875 23.699219 C 58.85175 23.699219 60.398609 22.827594 61.474609 21.183594 L 61.677734 23.363281 L 65.376953 23.363281 L 65.376953 0.03515625 L 61.373047 0.03515625 z M 110.98242 3.4960938 L 114.38086 3.4960938 C 115.64397 3.4960938 116.63485 3.691984 117.35352 4.0839844 C 118.07218 4.454207 118.43164 5.1731222 118.43164 6.2402344 C 118.43164 7.4162355 118.02843 8.2644422 117.22266 8.7871094 C 116.43866 9.3097766 115.40403 9.5722656 114.11914 9.5722656 L 110.98242 9.5722656 L 110.98242 3.4960938 z M 133.30664 6.109375 C 132.10886 6.109375 130.99817 6.3052652 129.97461 6.6972656 C 128.95106 7.0674882 128.05715 7.6323084 127.29492 8.3945312 C 126.55448 9.1349764 125.96681 10.049782 125.53125 11.138672 C 125.0957 12.227562 124.87891 13.480928 124.87891 14.896484 C 124.87891 16.312041 125.0957 17.563454 125.53125 18.652344 C 125.96681 19.741234 126.55448 20.667464 127.29492 21.429688 C 128.05715 22.170132 128.95106 22.736906 129.97461 23.128906 C 130.99817 23.520907 132.10886 23.716797 133.30664 23.716797 C 134.50441 23.716797 135.62458 23.520907 136.66992 23.128906 C 137.71526 22.736906 138.62059 22.170132 139.38281 21.429688 C 140.14504 20.667464 140.74413 19.741234 141.17969 18.652344 C 141.61524 17.563454 141.83203 16.312041 141.83203 14.896484 C 141.83203 13.480928 141.61524 12.227562 141.17969 11.138672 C 140.74413 10.049782 140.14504 9.1349764 139.38281 8.3945312 C 138.62059 7.6323084 137.71526 7.0674882 136.66992 6.6972656 C 135.62458 6.3052652 134.50441 6.109375 133.30664 6.109375 z M 151.70508 6.109375 C 150.5073 6.109375 149.3966 6.3052652 148.37305 6.6972656 C 147.34949 7.0674882 146.45753 7.6323084 145.69531 8.3945312 C 144.95487 9.1349764 144.36719 10.049782 143.93164 11.138672 C 143.49608 12.227562 143.27734 13.480928 143.27734 14.896484 C 143.27734 16.312041 143.49608 17.563454 143.93164 18.652344 C 144.36719 19.741234 144.95487 20.667464 145.69531 21.429688 C 146.45753 22.170132 147.34949 22.736906 148.37305 23.128906 C 149.3966 23.520907 150.5073 23.716797 151.70508 23.716797 C 152.90286 23.716797 154.02498 23.520907 155.07031 23.128906 C 156.11565 22.736906 157.01902 22.170132 157.78125 21.429688 C 158.54347 20.667464 159.14256 19.741234 159.57812 18.652344 C 160.01368 17.563454 160.23047 16.312041 160.23047 14.896484 C 160.23047 13.480928 160.01368 12.227562 159.57812 11.138672 C 159.14256 10.049782 158.54347 9.1349764 157.78125 8.3945312 C 157.01902 7.6323084 156.11565 7.0674882 155.07031 6.6972656 C 154.02498 6.3052652 152.90286 6.109375 151.70508 6.109375 z M 183.37109 6.140625 C 181.21509 6.140625 179.54905 6.5990043 178.37305 7.5136719 C 177.21883 8.4283394 176.64258 9.702602 176.64258 11.335938 C 176.64258 12.228827 176.80615 12.968641 177.13281 13.556641 C 177.45948 14.144641 177.88358 14.635343 178.40625 15.027344 C 178.92892 15.397566 179.51659 15.690425 180.16992 15.908203 C 180.82326 16.104203 181.47557 16.256346 182.12891 16.365234 C 182.65157 16.452346 183.14227 16.539842 183.59961 16.626953 C 184.07872 16.692286 184.49335 16.80068 184.8418 16.953125 C 185.19024 17.083792 185.4622 17.27021 185.6582 17.509766 C 185.87598 17.749322 185.98438 18.085928 185.98438 18.521484 C 185.98438 19.240152 185.70099 19.774602 185.13477 20.123047 C 184.59032 20.449714 183.83908 20.613281 182.88086 20.613281 C 181.59597 20.613281 180.47385 20.461139 179.51562 20.15625 C 178.5574 19.829583 177.79669 19.4587 177.23047 19.044922 L 176.44531 22.115234 C 177.01153 22.507235 177.81795 22.866693 178.86328 23.193359 C 179.93039 23.520027 181.28073 23.683594 182.91406 23.683594 C 183.74162 23.683594 184.5575 23.584672 185.36328 23.388672 C 186.16906 23.214449 186.88798 22.921591 187.51953 22.507812 C 188.17286 22.072257 188.69589 21.505484 189.08789 20.808594 C 189.50167 20.111704 189.70898 19.252072 189.70898 18.228516 C 189.70898 17.226737 189.53399 16.420325 189.18555 15.810547 C 188.8371 15.17899 188.38067 14.678816 187.81445 14.308594 C 187.27001 13.938372 186.64806 13.66641 185.95117 13.492188 C 185.27606 13.296186 184.61232 13.13262 183.95898 13.001953 C 183.43632 12.914842 182.94561 12.827346 182.48828 12.740234 C 182.05272 12.653123 181.67237 12.54473 181.3457 12.414062 C 181.01904 12.283397 180.7585 12.119829 180.5625 11.923828 C 180.3665 11.70605 180.26758 11.422663 180.26758 11.074219 C 180.26758 10.399107 180.53007 9.9198302 181.05273 9.6367188 C 181.5754 9.3318294 182.39128 9.1796875 183.50195 9.1796875 C 184.54729 9.1796875 185.42977 9.276656 186.14844 9.4726562 C 186.88888 9.6686566 187.52978 9.9197207 188.07422 10.224609 L 188.92383 7.2851562 C 188.37938 6.9802671 187.63957 6.717778 186.70312 6.5 C 185.76668 6.2604442 184.65598 6.140625 183.37109 6.140625 z M 75.128906 6.1445312 C 70.251906 6.1445312 67.931641 9.870657 67.931641 14.972656 C 67.931641 20.846656 70.823547 23.699219 75.935547 23.699219 C 78.491547 23.699219 80.375734 23.028656 81.552734 22.222656 L 81.552734 18.966797 C 80.308734 19.806797 78.221484 20.544922 76.271484 20.544922 C 73.345484 20.544922 72.237359 19.168609 72.068359 16.349609 L 81.720703 16.349609 L 81.720703 14.234375 C 81.720703 8.3603757 79.129906 6.1445312 75.128906 6.1445312 z M 24.886719 6.2109375 C 22.229719 6.2109375 20.144594 7.0508594 18.933594 7.7558594 L 18.933594 11.078125 C 20.010594 10.272125 22.362063 9.4003906 24.414062 9.4003906 C 26.331063 9.4003906 27.205078 10.071766 27.205078 11.884766 L 27.205078 12.824219 L 26.566406 12.824219 C 20.446406 12.824219 17.722656 14.838719 17.722656 18.261719 C 17.722656 21.685719 19.808344 23.599609 22.902344 23.599609 C 25.256344 23.599609 26.264109 22.826484 27.037109 22.021484 L 27.205078 22.021484 C 27.246778 22.480172 27.350337 22.931175 27.509766 23.363281 L 31.410156 23.363281 C 31.275792 21.99138 31.207253 20.614793 31.207031 19.236328 L 31.207031 11.851562 C 31.207031 11.851562 31.207031 11.849609 31.207031 11.849609 C 31.206343 7.7561287 29.123019 6.2109375 24.886719 6.2109375 z M 43.28125 6.2128906 C 40.89425 6.2128906 39.480828 7.085625 38.673828 7.890625 L 38.472656 7.890625 L 38.371094 6.4804688 L 34.470703 6.4804688 L 34.470703 23.363281 L 38.472656 23.363281 L 38.472656 11.246094 C 39.212656 10.340094 40.389938 9.5683594 41.835938 9.5683594 C 43.248937 9.5683594 43.886719 10.173219 43.886719 11.449219 L 43.886719 23.363281 L 47.888672 23.363281 L 47.888672 11.044922 C 47.888672 7.6889226 46.54325 6.2128906 43.28125 6.2128906 z M 82.830078 6.4804688 L 87.941406 14.570312 L 82.628906 23.363281 L 86.697266 23.363281 L 90.09375 17.658203 L 93.691406 23.363281 L 98.199219 23.363281 L 92.683594 14.671875 L 97.460938 6.4804688 L 93.457031 6.4804688 L 90.566406 11.582031 L 87.337891 6.4804688 L 82.830078 6.4804688 z M 58.144531 9.3007812 L 58.146484 9.3007812 C 60.298484 9.3007812 61.373047 11.01225 61.373047 14.90625 C 61.373047 18.83325 60.230562 20.544922 57.976562 20.544922 C 55.791562 20.544922 54.714844 18.865063 54.714844 15.039062 C 54.714844 11.044062 55.858531 9.3007812 58.144531 9.3007812 z M 75.060547 9.3007812 C 77.044547 9.3007812 77.650391 10.945547 77.650391 13.060547 L 77.650391 13.394531 L 72.068359 13.394531 C 72.170359 10.709531 73.143547 9.3007813 75.060547 9.3007812 z M 133.30664 9.3417969 C 133.93819 9.3417969 134.52587 9.4616161 135.07031 9.7011719 C 135.61475 9.9189499 136.0826 10.25751 136.47461 10.714844 C 136.86661 11.172177 137.1709 11.748424 137.38867 12.445312 C 137.62823 13.142202 137.74805 13.960039 137.74805 14.896484 C 137.74805 16.81293 137.32394 18.22791 136.47461 19.142578 C 135.64705 20.035467 134.59153 20.482422 133.30664 20.482422 C 132.0653 20.482422 131.03068 20.035467 130.20312 19.142578 C 129.37556 18.22791 128.96094 16.81293 128.96094 14.896484 C 128.96094 13.001816 129.37556 11.607733 130.20312 10.714844 C 131.03068 9.8001756 132.0653 9.3417969 133.30664 9.3417969 z M 151.70508 9.3417969 C 152.33664 9.3417969 152.92431 9.4616161 153.46875 9.7011719 C 154.0132 9.9189499 154.48105 10.25751 154.87305 10.714844 C 155.26505 11.172177 155.57128 11.748424 155.78906 12.445312 C 156.02862 13.142202 156.14844 13.960039 156.14844 14.896484 C 156.14844 16.81293 155.72238 18.22791 154.87305 19.142578 C 154.04549 20.035467 152.98997 20.482422 151.70508 20.482422 C 150.46374 20.482422 149.42912 20.035467 148.60156 19.142578 C 147.774 18.22791 147.36133 16.81293 147.36133 14.896484 C 147.36133 13.001816 147.774 11.607733 148.60156 10.714844 C 149.42912 9.8001756 150.46374 9.3417969 151.70508 9.3417969 z M 110.98242 13.099609 L 114.31445 13.099609 C 116.07845 13.099609 117.37557 13.350674 118.20312 13.851562 C 119.05246 14.330675 119.47656 15.190306 119.47656 16.431641 C 119.47656 17.738309 119.02961 18.641689 118.13672 19.142578 C 117.24383 19.621689 116.07991 19.861328 114.64258 19.861328 L 110.98242 19.861328 L 110.98242 13.099609 z M 26.634766 15.476562 L 27.205078 15.476562 L 27.205078 19.335938 C 26.701078 20.074938 25.759656 20.679688 24.347656 20.679688 C 22.665656 20.679688 21.826172 19.672109 21.826172 18.162109 C 21.826172 16.182109 23.203766 15.476562 26.634766 15.476562 z " />
  <g
     aria-label="Books"
     id="text41"
     style="font-style:normal;font-variant:normal;font-weight:normal;font-stretch:normal;font-size:32.6667px;line-height:1.25;font-family:'Yandex Sans Text';-inkscape-font-specification:'Yandex Sans Text';letter-spacing:-1.15px;word-spacing:0px;fill:#ffffff;fill-opacity:1;stroke:none" />
</svg>
